<svg width="978" height="1124" viewBox="0 0 978 1124" fill="none" xmlns="http://www.w3.org/2000/svg">
<path d="M0 -16.9999C0 -16.9999 53.6275 -17.0002 87.9048 -16.9996C87.9048 -16.9996 83.4819 49.7208 147.061 136.538C210.64 223.354 237.73 157.438 290.805 173.515C343.879 189.592 406.5 278.5 406.5 278.5C406.5 278.5 457.216 326.249 519.689 339.914C582.162 353.58 879.048 171.103 915.537 134.93C952.026 98.756 844.771 296.506 808.282 369.657C771.793 442.809 721.483 632.52 721.483 632.52C721.483 632.52 707.108 780.43 729.223 888.148C751.337 995.865 769.582 1024 769.582 1024L0 1017.57V-16.9999Z" fill="#005084"/>
<path d="M-3.21199 845H720.711C720.711 845 739.9 897.643 758.532 928.436C786.902 975.322 805.677 1003.3 852.286 1034.85C895.327 1063.99 978 1083.32 978 1083.32C978 1083.32 861.331 1119.62 784.101 1119.79C665.14 1120.04 612.091 1039.95 493.254 1034.85C353.834 1028.88 283.932 1147.54 147.539 1119.79C84.3937 1106.94 5.31102 1068.33 -3.21199 1055.84C-11.735 1043.35 -3.21199 845 -3.21199 845Z" fill="#005084"/>
</svg>
